# xmcd
#
# Track frame offsets:
#	182
#	12770
#	34900
#	46325
#	65765
#	76382
#	86837
#	103377
#	115827
#	143720
#	156967
#	168460
#	182045
#	193570
#	208040
#	221732
#	242190
#	260695
#	275442
#	293550
#
# Disc length: 4102
#
# Revision: 3
# Processed by: cddbd v1.5.1PL0 Copyright (c) Steve Scherf et al.
# Submitted via: xmcd 2.2 PL0
# Normalized: r2:DSETVAR1
#
DISCID=2f100414
DTITLE=Various Artist - Born Under a Bad Sign
DYEAR=1900
DGENRE=
TTITLE0=Albert King - Born Under a Bad Sign
TTITLE1=B. B. King - The Thrill Has Gone
TTITLE2=Slim Harpo - Shake Your Hips
TTITLE3=Sonny Boy Williamson - Nine Below Zero
TTITLE4=Etta James - Tell Mama
TTITLE5=Buddy Guy - I Got My Eyes on You
TTITLE6=Elmore James - Long Tall Woman
TTITLE7=Sonny Terry and Brownie McGhee - Freight Train
TTITLE8=Leadbelly - Roberta Part 1 and 2
TTITLE9=Big Bill Broonzy - Whisky and Good Time Blues
TTITLE10=Robert Johnson - Crossroads
TTITLE11=Bessie Smith - Nobody Knows You When You're Down and Out
TTITLE12=Son House - John the Revelator
TTITLE13=John Lee Hooker - Boogie Chillen
TTITLE14=Jimmy Witherspoon - One Scotch, One Bourbon, One Beer
TTITLE15=Taj Mahal - Dust My Broom
TTITLE16=Bobby Bland - Stormy Monday Blues
TTITLE17=Lightnin' Hopkins - Blues in the Bottle
TTITLE18=Muddy Waters - Hoochie Coochie Man
TTITLE19=Howlin' Wolf - Smokestack Lightning
EXTD=
EXTT0=
EXTT1=
EXTT2=
EXTT3=
EXTT4=
EXTT5=
EXTT6=
EXTT7=
EXTT8=
EXTT9=
EXTT10=
EXTT11=
EXTT12=
EXTT13=
EXTT14=
EXTT15=
EXTT16=
EXTT17=
EXTT18=
EXTT19=
PLAYORDER=
